<?xml version="1.0" encoding="UTF-8"?>
<svg width="347px" height="201px" viewBox="0 0 347 201" version="1.1" xmlns="http://www.w3.org/2000/svg" xmlns:xlink="http://www.w3.org/1999/xlink">
    <!-- Generator: Sketch 47.1 (45422) - http://www.bohemiancoding.com/sketch -->
    <title>makevalidhitmap</title>
    <desc>Created with Sketch.</desc>
    <defs>
        <rect id="path-1" x="16.4647665" y="42.6016723" width="196" height="115.500314"></rect>
        <rect id="path-2" x="42.6466642" y="59.5044778" width="142.051775" height="86.0994325"></rect>
        <path d="M94.9386328,70.3416171 L65.4033351,70.3416171 L65.4033351,136.380374 L108.624188,136.380374 L95.1150412,129.789407 L99.1708404,112.056246 L79.5794219,92.8886038 L94.9386328,70.3416171 Z M120.460963,70.3416171 L174.357859,70.3416171 L174.357859,136.380374 L123.494931,136.380374 L133.480533,118.910484 L152.855205,112.056246 L160.92498,92.8886038 L138.63704,92.8886038 L120.460963,70.3416171 Z" id="path-3"></path>
        <path d="M99.277251,68.5769997 L199.994854,68.5769997 L199.994854,129.623251 L99.277251,129.623251 L99.277251,68.5769997 Z M149.979564,80.3142712 L136.896641,80.3142712 L128.81095,93.8058368 L139.007528,105.145048 L136.896641,115.635648 L149.979564,122.890885 L156.864401,109.199885 L166.948171,105.145048 L171.148177,93.8058368 L159.548164,93.8058368 L149.979564,80.3142712 Z" id="path-4"></path>
    </defs>
    <g id="HitMap" stroke="none" stroke-width="1" fill="none" fill-rule="evenodd">
        <g id="Rectangle-Copy-2" transform="translate(114.464766, 100.351829) rotate(31.000000) translate(-114.464766, -100.351829) ">
            <use fill="#4A90E2" fill-rule="evenodd" xlink:href="#path-1"></use>
            <rect stroke="#000000" stroke-width="1" x="16.9647665" y="43.1016723" width="195" height="114.500314"></rect>
        </g>
        <g id="Rectangle-Copy-3" transform="translate(113.672552, 102.554194) rotate(31.000000) translate(-113.672552, -102.554194) ">
            <use fill="#B8E986" fill-rule="evenodd" xlink:href="#path-2"></use>
            <rect stroke="#000000" stroke-width="1" x="43.1466642" y="60.0044778" width="141.051775" height="85.0994325"></rect>
        </g>
        <g id="Rectangle-Copy-4" transform="translate(119.880597, 103.360995) rotate(31.000000) translate(-119.880597, -103.360995) ">
            <use fill="#4A90E2" fill-rule="evenodd" xlink:href="#path-3"></use>
            <path stroke="#000000" stroke-width="1" d="M98.6209839,112.217784 L98.8211735,112.413643 L98.6834261,111.944768 L98.6209839,112.217784 Z M106.459075,135.880374 L108.404946,136.829743 L108.624188,135.880374 L106.459075,135.880374 Z M65.9033351,135.880374 L65.4033351,135.880374 L65.9033351,136.380374 L65.9033351,135.880374 Z M65.9033351,70.8416171 L65.9033351,70.3416171 L65.4033351,70.8416171 L65.9033351,70.8416171 Z M93.9930395,70.8416171 L94.9386328,70.8416171 L94.525402,70.0601205 L93.9930395,70.8416171 Z M93.9930395,70.8416171 L78.9304498,92.9531704 L98.6209839,112.217784 L94.5391511,130.064772 L106.459075,135.880374 L65.9033351,135.880374 L65.9033351,70.8416171 L93.9930395,70.8416171 Z M121.506269,70.8416171 L138.876204,92.3886038 L161.677991,92.3886038 L153.230286,112.453919 L133.822433,119.319895 L124.356641,135.880374 L173.857859,135.880374 L173.857859,70.8416171 L121.506269,70.8416171 Z"></path>
        </g>
        <g id="Rectangle-Copy-5" transform="translate(149.636052, 99.100126) rotate(31.000000) translate(-149.636052, -99.100126) ">
            <use fill="#B8E986" fill-rule="evenodd" xlink:href="#path-4"></use>
            <path stroke="#000000" stroke-width="1" d="M99.777251,69.0769997 L99.777251,129.123251 L199.494854,129.123251 L199.494854,69.0769997 L99.777251,69.0769997 Z M166.556204,104.763754 L166.76163,104.681149 L166.4793,104.97138 L166.556204,104.763754 Z M159.806535,93.3058368 L171.866572,93.3058368 L167.340137,105.526343 L157.226223,109.593301 L150.192368,123.580635 L136.334323,115.895548 L138.467811,105.292627 L128.192235,93.8655649 L136.613379,79.8142712 L150.237935,79.8142712 L159.806535,93.3058368 Z"></path>
        </g>
        <path d="M344.5,77.5 L149.5,98.5" id="Line" stroke="#979797" stroke-width="4" fill="#000000" stroke-linecap="square"></path>
        <path id="Line-decoration-1" d="M149.5,98.5 L160.559132,100.326363 L159.916693,94.360856 L149.5,98.5 Z" stroke="#979797" stroke-width="4" fill="#000000" stroke-linecap="square"></path>
    </g>
</svg>